<?xml version="1.0" encoding="UTF-8" standalone="no"?>
<svg width="200px" height="200px" viewBox="0 0 200 200" version="1.1" xmlns="http://www.w3.org/2000/svg" xmlns:xlink="http://www.w3.org/1999/xlink" style="background: #FFFFFF;">
    <!-- Generator: Sketch 39.1 (31720) - http://www.bohemiancoding.com/sketch -->
    <title>natralLogo</title>
    <desc>Created with Sketch.</desc>
    <defs></defs>
    <g id="Page-1" stroke="none" stroke-width="1" fill="none" fill-rule="evenodd">
        <g id="Circles" transform="translate(60.000000, 42.000000)">
            <ellipse id="Outer-Circle" stroke="#000000" stroke-width="2" fill="#FFFFFF" cx="40.594167" cy="40.594167" rx="40.594167" ry="40.594167"></ellipse>
            <ellipse id="Inner-Circle" fill="#926239" cx="40.3489105" cy="40.3489105" rx="34.3489105" ry="34.3489105"></ellipse>
        </g>
        <g id="Bread" transform="translate(73.000000, 82.000000)">
            <path d="M54.0993725,17.2194511 C52.6355336,13.037153 44.0058659,9.53333017 34.8244701,9.3934439 C25.6430744,9.25355762 17.0134067,12.53058 15.5495678,16.7128781 C14.0857289,20.8951763 22.7153966,24.3989991 34.8244701,24.5388854 C46.9335436,24.6787716 55.5632114,21.4017493 54.0993725,17.2194511 Z" id="Oval" fill="#DECFC3" transform="translate(34.824470, 16.966165) rotate(-13.000000) translate(-34.824470, -16.966165) "></path>
            <path d="M40.5689897,13.8646796 C39.1051508,9.68238142 30.4754831,6.17855864 21.2940873,6.03867236 C12.1126916,5.89878609 3.48302387,9.17580841 2.01918499,13.3581066 C0.555346096,17.5404048 9.18501383,21.0442275 21.2940873,21.1841138 C33.4031609,21.3240001 42.0328286,18.0469778 40.5689897,13.8646796 Z" id="Oval" fill="#DECFC3" transform="translate(21.294087, 13.611393) rotate(18.000000) translate(-21.294087, -13.611393) "></path>
            <path d="M48.9979488,20.1517199 C47.5341099,15.9694217 38.9044422,12.4655989 29.7230464,12.3257127 C20.5416507,12.1858264 11.911983,15.4628487 10.4481441,19.6451469 C8.98430519,23.8274451 17.6139729,27.3312678 29.7230464,27.4711541 C41.8321199,27.6110404 50.4617877,24.3340181 48.9979488,20.1517199 Z" id="Oval" fill="#DECFC3"></path>
            <path d="M13.2006725,6.89392984 C8.58709904,11.4419026 16.5206298,7.11575498 16.5206298,7.11575498 C16.5206298,7.11575498 17.814246,2.34595708 13.2006725,6.89392984 Z" id="Path-2" fill="#926239"></path>
            <path d="M22.624725,9.05017409 C18.0111516,13.5981468 25.9446823,9.27199923 25.9446823,9.27199923 C25.9446823,9.27199923 27.2382985,4.50220134 22.624725,9.05017409 Z" id="Path-2" fill="#926239"></path>
            <path d="M22.624725,14.9028371 C18.0111516,19.4508098 25.9446823,15.1246622 25.9446823,15.1246622 C25.9446823,15.1246622 27.2382985,10.3548643 22.624725,14.9028371 Z" id="Path-2" fill="#926239"></path>
            <path d="M27.6312529,14.9028371 C23.0176795,19.4508098 30.9512102,15.1246622 30.9512102,15.1246622 C30.9512102,15.1246622 32.2448264,10.3548643 27.6312529,14.9028371 Z" id="Path-2" fill="#926239"></path>
            <path d="M32.6377808,14.9028371 C28.0242074,19.4508098 35.9577381,15.1246622 35.9577381,15.1246622 C35.9577381,15.1246622 37.2513543,10.3548643 32.6377808,14.9028371 Z" id="Path-2" fill="#926239"></path>
            <path d="M37.6443088,15.5189068 C33.0307353,20.0668796 40.964266,15.740732 40.964266,15.740732 C40.964266,15.740732 42.2578822,10.9709341 37.6443088,15.5189068 Z" id="Path-2" fill="#926239"></path>
            <path d="M38.5278137,10.8983834 C33.9142402,15.4463562 41.847771,11.1202086 41.847771,11.1202086 C41.847771,11.1202086 43.1413871,6.35041069 38.5278137,10.8983834 Z" id="Path-2" fill="#926239"></path>
            <path d="M45.5958531,11.5144532 C40.9822796,16.062426 48.9158104,11.7362784 48.9158104,11.7362784 C48.9158104,11.7362784 50.2094265,6.96648048 45.5958531,11.5144532 Z" id="Path-2" fill="#926239"></path>
        </g>
        <g id="Stars" transform="translate(72.000000, 49.000000)" fill="#DECFC3">
            <polygon id="Star" points="28.4296563 10.5990924 24.057154 12.7826255 24.8922276 8.15782815 21.3547989 4.88252848 26.2434052 4.20777964 28.4296563 0 30.6159075 4.20777964 35.5045138 4.88252848 31.9670851 8.15782815 32.8021587 12.7826255"></polygon>
            <polygon id="Star" transform="translate(45.629113, 16.979687) rotate(45.000000) translate(-45.629113, -16.979687) " points="45.6291125 21.187467 41.2566101 23.3710001 42.0916838 18.7462027 38.5542551 15.4709031 43.4428613 14.7961542 45.6291125 10.5883746 47.8153637 14.7961542 52.70397 15.4709031 49.1665413 18.7462027 50.0016149 23.3710001"></polygon>
            <polygon id="Star" transform="translate(9.961232, 16.543851) rotate(-42.000000) translate(-9.961232, -16.543851) " points="9.96123193 20.7516303 5.58872955 22.9351634 6.4238032 18.3103661 2.88637446 15.0350664 7.77498074 14.3603176 9.96123193 10.1525379 12.1474831 14.3603176 17.0360894 15.0350664 13.4986607 18.3103661 14.3337343 22.9351634"></polygon>
        </g>
        <text id="Natral-Foods" font-family="Arial-Black, Arial Black" font-size="18" font-weight="700" fill="#926239">
            <tspan x="36.664229" y="144">Natral Foods</tspan>
        </text>
        <text id="Nature-at-It’s-best" font-family="Arial-Black, Arial Black" font-size="9" font-weight="700" fill="#000000">
            <tspan x="55.4032676" y="160">Nature at It’s best</tspan>
        </text>
    </g>
</svg>